<?xml version="1.0" encoding="UTF-8" standalone="no"?>
<!DOCTYPE svg PUBLIC "-//W3C//DTD SVG 1.1//EN" "http://www.w3.org/Graphics/SVG/1.1/DTD/svg11.dtd">
<svg xmlns="http://www.w3.org/2000/svg" version="1.1" viewBox="0.00 0.00 84.00 57.00">
<path fill="#2b2e6b" d="
  M 64.54 18.57
  Q 59.51 31.82 53.50 45.68
  A 1.29 1.29 0.0 0 1 51.14 45.70
  L 37.19 14.74
  A 1.71 1.68 -88.5 0 0 36.44 13.94
  Q 34.81 13.09 32.86 13.10
  Q 32.34 13.10 32.33 12.58
  L 32.32 12.30
  A 0.32 0.32 0.0 0 1 32.64 11.98
  L 42.74 11.90
  Q 43.26 11.90 43.47 12.38
  L 54.74 37.96
  Q 55.08 38.73 55.39 37.95
  L 65.67 12.72
  Q 65.97 11.98 66.77 11.97
  L 75.32 11.87
  Q 75.78 11.87 75.80 12.32
  L 75.82 12.71
  Q 75.84 13.24 75.31 13.23
  Q 71.80 13.17 71.79 17.04
  Q 71.74 29.24 71.79 41.48
  Q 71.81 45.12 75.19 44.96
  Q 75.74 44.93 75.76 45.48
  L 75.78 46.00
  Q 75.80 46.35 75.45 46.35
  L 62.01 46.31
  Q 60.47 46.31 61.72 45.40
  C 62.61 44.76 63.87 44.97 64.67 44.01
  Q 65.63 42.86 65.64 41.41
  Q 65.75 30.38 65.68 18.78
  Q 65.66 15.61 64.54 18.57
  Z"
/>
<path fill="#ee7e3a" d="
  M 9.89 16.95
  Q 9.72 29.12 9.82 40.82
  Q 9.85 44.96 13.73 45.28
  A 0.42 0.42 0.0 0 1 14.12 45.71
  L 14.11 46.02
  Q 14.11 46.29 13.83 46.29
  L 5.05 46.31
  Q 3.53 46.31 4.79 45.46
  C 6.66 44.20 8.52 44.71 8.51 41.52
  Q 8.50 29.90 8.52 16.56
  C 8.52 14.33 6.68 13.13 4.57 12.93
  A 0.32 0.32 0.0 0 1 4.31 12.49
  L 4.44 12.20
  Q 4.53 11.99 4.76 11.99
  L 15.49 11.97
  Q 16.09 11.97 16.44 12.45
  Q 28.50 29.47 39.36 44.13
  Q 40.12 45.15 41.98 45.27
  Q 42.18 45.28 42.24 45.47
  L 42.38 45.87
  Q 42.52 46.30 42.07 46.30
  L 32.82 46.31
  A 1.00 1.00 0.0 0 1 32.02 45.91
  L 10.43 16.77
  A 0.30 0.30 0.0 0 0 9.89 16.95
  Z"
/>
</svg>
